<svg width="968" height="849" viewBox="0 0 968 849" fill="none" xmlns="http://www.w3.org/2000/svg">
<rect width="968" height="849" rx="16" fill="#1EBFBF"/>
<path d="M152.855 314.114L152.855 518.519" stroke="#16191C" stroke-width="3" stroke-linecap="round" stroke-dasharray="0.18 5.59"/>
<rect x="81.355" y="309.37" width="143" height="46.7331" rx="23.3665" fill="#1EBFBF"/>
<rect x="81.355" y="309.37" width="143" height="46.7331" rx="23.3665" stroke="#16191C" stroke-width="2"/>
<path d="M105.891 328.161V331.624H110.541V333.82H105.891V337.481H111.135V339.736H103.121V325.906H111.135V328.161H105.891ZM119.727 328.616C121.033 328.616 122.088 329.032 122.892 329.863C123.697 330.681 124.099 331.828 124.099 333.306V339.736H121.329V333.682C121.329 332.811 121.112 332.145 120.676 331.683C120.241 331.208 119.648 330.971 118.896 330.971C118.131 330.971 117.524 331.208 117.075 331.683C116.64 332.145 116.422 332.811 116.422 333.682V339.736H113.652V328.775H116.422V330.14C116.792 329.665 117.26 329.296 117.827 329.032C118.408 328.755 119.041 328.616 119.727 328.616ZM126.021 334.255C126.021 333.121 126.252 332.132 126.714 331.288C127.176 330.43 127.815 329.771 128.633 329.309C129.451 328.834 130.388 328.597 131.443 328.597C132.802 328.597 133.923 328.94 134.807 329.625C135.704 330.298 136.304 331.248 136.607 332.475H133.619C133.461 332 133.191 331.63 132.808 331.367C132.439 331.09 131.977 330.951 131.423 330.951C130.632 330.951 130.005 331.241 129.543 331.822C129.082 332.389 128.851 333.2 128.851 334.255C128.851 335.298 129.082 336.109 129.543 336.689C130.005 337.256 130.632 337.54 131.423 337.54C132.544 337.54 133.276 337.039 133.619 336.036H136.607C136.304 337.223 135.704 338.167 134.807 338.866C133.91 339.565 132.788 339.914 131.443 339.914C130.388 339.914 129.451 339.684 128.633 339.222C127.815 338.747 127.176 338.087 126.714 337.243C126.252 336.386 126.021 335.39 126.021 334.255ZM141.407 330.476C141.763 329.896 142.224 329.441 142.792 329.111C143.372 328.781 144.032 328.616 144.77 328.616V331.525H144.038C143.168 331.525 142.508 331.729 142.06 332.138C141.624 332.547 141.407 333.26 141.407 334.275V339.736H138.636V328.775H141.407V330.476ZM157.123 328.775L150.336 344.92H147.388L149.762 339.459L145.37 328.775H148.476L151.306 336.432L154.175 328.775H157.123ZM161.386 330.358C161.742 329.856 162.23 329.441 162.85 329.111C163.484 328.768 164.203 328.597 165.007 328.597C165.944 328.597 166.788 328.827 167.54 329.289C168.305 329.751 168.905 330.41 169.34 331.268C169.789 332.112 170.013 333.095 170.013 334.216C170.013 335.337 169.789 336.333 169.34 337.204C168.905 338.061 168.305 338.727 167.54 339.202C166.788 339.677 165.944 339.914 165.007 339.914C164.203 339.914 163.49 339.75 162.87 339.42C162.263 339.09 161.769 338.674 161.386 338.173V344.96H158.616V328.775H161.386V330.358ZM167.184 334.216C167.184 333.556 167.045 332.989 166.768 332.514C166.504 332.026 166.148 331.657 165.7 331.406C165.264 331.156 164.79 331.03 164.275 331.03C163.774 331.03 163.299 331.162 162.85 331.426C162.415 331.677 162.059 332.046 161.782 332.534C161.518 333.022 161.386 333.596 161.386 334.255C161.386 334.915 161.518 335.489 161.782 335.977C162.059 336.465 162.415 336.841 162.85 337.105C163.299 337.355 163.774 337.481 164.275 337.481C164.79 337.481 165.264 337.349 165.7 337.085C166.148 336.821 166.504 336.445 166.768 335.957C167.045 335.469 167.184 334.889 167.184 334.216ZM175.251 331.05V336.353C175.251 336.722 175.337 336.993 175.509 337.164C175.693 337.322 175.997 337.402 176.419 337.402H177.705V339.736H175.964C173.629 339.736 172.461 338.602 172.461 336.333V331.05H171.156V328.775H172.461V326.064H175.251V328.775H177.705V331.05H175.251ZM189.887 334.018C189.887 334.414 189.861 334.77 189.808 335.087H181.795C181.861 335.878 182.138 336.498 182.626 336.946C183.114 337.395 183.714 337.619 184.426 337.619C185.455 337.619 186.187 337.177 186.622 336.293H189.61C189.294 337.349 188.687 338.219 187.79 338.905C186.893 339.578 185.791 339.914 184.486 339.914C183.43 339.914 182.481 339.684 181.636 339.222C180.805 338.747 180.152 338.081 179.677 337.223C179.216 336.366 178.985 335.377 178.985 334.255C178.985 333.121 179.216 332.125 179.677 331.268C180.139 330.41 180.785 329.751 181.617 329.289C182.448 328.827 183.404 328.597 184.486 328.597C185.528 328.597 186.458 328.821 187.275 329.269C188.106 329.718 188.746 330.358 189.195 331.189C189.656 332.006 189.887 332.95 189.887 334.018ZM187.018 333.227C187.005 332.514 186.748 331.947 186.247 331.525C185.745 331.09 185.132 330.872 184.406 330.872C183.72 330.872 183.14 331.083 182.665 331.505C182.204 331.914 181.92 332.488 181.814 333.227H187.018ZM191.197 334.216C191.197 333.108 191.415 332.125 191.85 331.268C192.298 330.41 192.905 329.751 193.67 329.289C194.435 328.827 195.286 328.597 196.223 328.597C196.935 328.597 197.614 328.755 198.261 329.071C198.907 329.375 199.421 329.784 199.804 330.298V325.094H202.614V339.736H199.804V338.114C199.461 338.655 198.98 339.09 198.36 339.42C197.74 339.75 197.021 339.914 196.203 339.914C195.279 339.914 194.435 339.677 193.67 339.202C192.905 338.727 192.298 338.061 191.85 337.204C191.415 336.333 191.197 335.337 191.197 334.216ZM199.824 334.255C199.824 333.583 199.692 333.009 199.428 332.534C199.164 332.046 198.808 331.677 198.36 331.426C197.911 331.162 197.43 331.03 196.915 331.03C196.401 331.03 195.926 331.156 195.491 331.406C195.055 331.657 194.699 332.026 194.422 332.514C194.158 332.989 194.026 333.556 194.026 334.216C194.026 334.875 194.158 335.456 194.422 335.957C194.699 336.445 195.055 336.821 195.491 337.085C195.939 337.349 196.414 337.481 196.915 337.481C197.43 337.481 197.911 337.355 198.36 337.105C198.808 336.841 199.164 336.472 199.428 335.997C199.692 335.509 199.824 334.928 199.824 334.255Z" fill="#16191C"/>
<path d="M849.91 59.3818L849.91 243.167" stroke="#16191C" stroke-width="3" stroke-linecap="round" stroke-dasharray="0.18 5.59"/>
<rect x="778.41" y="54.6382" width="143" height="46.7331" rx="23.3665" fill="#1EBFBF"/>
<rect x="778.41" y="54.6382" width="143" height="46.7331" rx="23.3665" stroke="#16191C" stroke-width="2"/>
<path d="M802.947 73.4298V76.8924H807.596V79.0887H802.947V82.7492H808.19V85.0049H800.177V71.1741H808.19V73.4298H802.947ZM816.782 73.8849C818.088 73.8849 819.143 74.3004 819.948 75.1314C820.752 75.9493 821.155 77.0969 821.155 78.5743V85.0049H818.385V78.9502C818.385 78.0796 818.167 77.4135 817.732 76.9518C817.296 76.4769 816.703 76.2395 815.951 76.2395C815.186 76.2395 814.579 76.4769 814.13 76.9518C813.695 77.4135 813.477 78.0796 813.477 78.9502V85.0049H810.707V74.0432H813.477V75.4085C813.847 74.9336 814.315 74.5642 814.882 74.3004C815.463 74.0234 816.096 73.8849 816.782 73.8849ZM823.077 79.524C823.077 78.3896 823.307 77.4003 823.769 76.5561C824.231 75.6987 824.871 75.0391 825.688 74.5774C826.506 74.1025 827.443 73.8651 828.498 73.8651C829.857 73.8651 830.978 74.2081 831.862 74.894C832.759 75.5667 833.359 76.5165 833.662 77.7433H830.675C830.516 77.2684 830.246 76.899 829.863 76.6352C829.494 76.3582 829.032 76.2197 828.478 76.2197C827.687 76.2197 827.06 76.5099 826.599 77.0903C826.137 77.6575 825.906 78.4688 825.906 79.524C825.906 80.5661 826.137 81.3774 826.599 81.9578C827.06 82.525 827.687 82.8086 828.478 82.8086C829.599 82.8086 830.332 82.3073 830.675 81.3048H833.662C833.359 82.492 832.759 83.4352 831.862 84.1343C830.965 84.8334 829.844 85.183 828.498 85.183C827.443 85.183 826.506 84.9521 825.688 84.4904C824.871 84.0156 824.231 83.356 823.769 82.5118C823.307 81.6544 823.077 80.6585 823.077 79.524ZM838.462 75.7448C838.818 75.1644 839.28 74.7093 839.847 74.3796C840.427 74.0498 841.087 73.8849 841.825 73.8849V76.7935H841.093C840.223 76.7935 839.563 76.998 839.115 77.4069C838.679 77.8158 838.462 78.5281 838.462 79.5438V85.0049H835.692V74.0432H838.462V75.7448ZM854.178 74.0432L847.391 90.1889H844.443L846.818 84.7279L842.425 74.0432H845.531L848.361 81.7005L851.23 74.0432H854.178ZM858.441 75.6261C858.798 75.1248 859.286 74.7093 859.906 74.3796C860.539 74.0366 861.258 73.8651 862.062 73.8651C862.999 73.8651 863.843 74.096 864.595 74.5576C865.36 75.0193 865.96 75.6789 866.396 76.5363C866.844 77.3805 867.068 78.3632 867.068 79.4845C867.068 80.6057 866.844 81.6016 866.396 82.4722C865.96 83.3296 865.36 83.9958 864.595 84.4706C863.843 84.9455 862.999 85.183 862.062 85.183C861.258 85.183 860.545 85.0181 859.925 84.6883C859.319 84.3585 858.824 83.943 858.441 83.4418V90.2285H855.671V74.0432H858.441V75.6261ZM864.239 79.4845C864.239 78.8249 864.1 78.2577 863.823 77.7828C863.56 77.2948 863.203 76.9254 862.755 76.6748C862.32 76.4242 861.845 76.2988 861.33 76.2988C860.829 76.2988 860.354 76.4308 859.906 76.6946C859.47 76.9452 859.114 77.3145 858.837 77.8026C858.573 78.2907 858.441 78.8645 858.441 79.524C858.441 80.1836 858.573 80.7574 858.837 81.2455C859.114 81.7335 859.47 82.1095 859.906 82.3733C860.354 82.6239 860.829 82.7492 861.33 82.7492C861.845 82.7492 862.32 82.6173 862.755 82.3535C863.203 82.0897 863.56 81.7137 863.823 81.2257C864.1 80.7376 864.239 80.1572 864.239 79.4845ZM872.306 76.3186V81.6214C872.306 81.9907 872.392 82.2612 872.564 82.4326C872.748 82.5909 873.052 82.6701 873.474 82.6701H874.76V85.0049H873.019C870.684 85.0049 869.517 83.8705 869.517 81.6016V76.3186H868.211V74.0432H869.517V71.3324H872.306V74.0432H874.76V76.3186H872.306ZM886.942 79.2866C886.942 79.6823 886.916 80.0385 886.863 80.3551H878.85C878.916 81.1465 879.193 81.7665 879.681 82.215C880.169 82.6635 880.769 82.8877 881.481 82.8877C882.51 82.8877 883.242 82.4458 883.678 81.562H886.665C886.349 82.6173 885.742 83.4879 884.845 84.1739C883.948 84.8466 882.847 85.183 881.541 85.183C880.485 85.183 879.536 84.9521 878.691 84.4904C877.86 84.0156 877.207 83.3494 876.733 82.492C876.271 81.6346 876.04 80.6453 876.04 79.524C876.04 78.3896 876.271 77.3937 876.733 76.5363C877.194 75.6789 877.841 75.0193 878.672 74.5576C879.503 74.096 880.459 73.8651 881.541 73.8651C882.583 73.8651 883.513 74.0894 884.331 74.5378C885.162 74.9863 885.801 75.6261 886.25 76.4571C886.712 77.275 886.942 78.2181 886.942 79.2866ZM884.073 78.4951C884.06 77.7828 883.803 77.2156 883.302 76.7935C882.8 76.3582 882.187 76.1406 881.462 76.1406C880.776 76.1406 880.195 76.3516 879.72 76.7737C879.259 77.1826 878.975 77.7564 878.87 78.4951H884.073ZM888.252 79.4845C888.252 78.3764 888.47 77.3937 888.905 76.5363C889.353 75.6789 889.96 75.0193 890.725 74.5576C891.49 74.096 892.341 73.8651 893.278 73.8651C893.99 73.8651 894.669 74.0234 895.316 74.34C895.962 74.6434 896.477 75.0523 896.859 75.5667V70.3629H899.669V85.0049H896.859V83.3824C896.516 83.9232 896.035 84.3585 895.415 84.6883C894.795 85.0181 894.076 85.183 893.258 85.183C892.335 85.183 891.49 84.9455 890.725 84.4706C889.96 83.9958 889.353 83.3296 888.905 82.4722C888.47 81.6016 888.252 80.6057 888.252 79.4845ZM896.879 79.524C896.879 78.8513 896.747 78.2775 896.483 77.8026C896.219 77.3145 895.863 76.9452 895.415 76.6946C894.966 76.4308 894.485 76.2988 893.97 76.2988C893.456 76.2988 892.981 76.4242 892.546 76.6748C892.11 76.9254 891.754 77.2948 891.477 77.7828C891.213 78.2577 891.082 78.8249 891.082 79.4845C891.082 80.144 891.213 80.7244 891.477 81.2257C891.754 81.7137 892.11 82.0897 892.546 82.3535C892.994 82.6173 893.469 82.7492 893.97 82.7492C894.485 82.7492 894.966 82.6239 895.415 82.3733C895.863 82.1095 896.219 81.7401 896.483 81.2652C896.747 80.7772 896.879 80.1968 896.879 79.524Z" fill="#16191C"/>
<path d="M259.78 150.125H721.216C794.649 150.125 854.178 209.654 854.178 283.087C854.178 356.52 794.649 416.049 721.216 416.049H271.861C206.136 416.049 152.855 469.33 152.855 535.056C152.855 600.781 206.136 654.062 271.861 654.062H671.769" stroke="#16191C" stroke-width="31"/>
<path d="M121.16 80.0066C121.16 74.9464 125.262 70.8442 130.322 70.8442H327.414C332.474 70.8442 336.576 74.9464 336.576 80.0066V198.62H121.16V80.0066Z" fill="#F9F9F9"/>
<path d="M103.413 198.617H353.23V201.741C353.23 206.801 349.128 210.903 344.068 210.903H112.575C107.515 210.903 103.413 206.801 103.413 201.741V198.617Z" fill="#16191C"/>
<path d="M203.251 203.805C203.251 205.03 204.244 206.024 205.47 206.024H249.841C251.066 206.024 252.059 205.03 252.059 203.805" stroke="#F9F9F9" stroke-width="2.41446" stroke-linecap="round"/>
<mask id="mask0_3208_1054" style="mask-type:alpha" maskUnits="userSpaceOnUse" x="125" y="75" width="208" height="119">
<rect x="125.471" y="75.4062" width="207.021" height="118.298" rx="4.58119" fill="#1EBFBF"/>
</mask>
<g mask="url(#mask0_3208_1054)">
<rect x="125.471" y="75.4062" width="207.021" height="118.298" fill="#1EBFBF"/>
<path fill-rule="evenodd" clip-rule="evenodd" d="M239.095 112.696C240.266 112.728 241.371 112.75 242.263 112.911C244.132 113.395 245.892 114.432 246.807 116.508C246.807 116.508 247.013 116.878 247.163 117.941C247.313 119.005 247.54 121.957 247.54 121.957C247.853 126.859 247.887 131.957 247.937 136.762C247.856 138.642 247.341 140.409 246.56 142.024C244.652 145.973 241.155 149.016 238.525 150.599C232.017 153.971 225.722 156.974 220.394 159.393C214.754 161.543 212.194 159.384 211.345 156.821C211.173 156.124 211.113 155.406 211.139 154.742C211.14 154.739 211.192 153.15 211.582 150.541C211.972 147.928 214.848 129.129 217.936 119.492C218.716 117.266 221.622 113.085 228.534 112.696H239.095Z" fill="#16191C"/>
<path d="M237.941 121.494C238.443 121.494 238.85 121.908 238.85 122.42V125.661C238.85 126.172 238.443 126.587 237.941 126.587H237.487C234.475 126.587 232.034 129.074 232.034 132.143V137.121C232.034 143.002 227.356 147.77 221.584 147.77H221.13C220.628 147.77 220.221 147.355 220.221 146.844L220.221 143.603C220.221 143.091 220.628 142.677 221.13 142.677H221.584C224.595 142.677 227.036 140.189 227.036 137.121V132.143C227.036 126.262 231.715 121.494 237.487 121.494L237.941 121.494Z" fill="#1EBFBF"/>
<circle opacity="0.3" cx="229.339" cy="134.724" r="102.443" stroke="#16191C" stroke-width="0.98768"/>
<circle opacity="0.15" cx="229.34" cy="134.724" r="130.644" stroke="#16191C" stroke-width="0.98768"/>
<circle opacity="0.6" cx="229.341" cy="134.724" r="74.2426" stroke="#16191C" stroke-width="0.98768"/>
<circle cx="228.998" cy="134.383" r="45.6978" stroke="#16191C" stroke-width="0.98768"/>
</g>
<rect x="184.088" y="219.8" width="88.4661" height="46.7331" rx="23.3665" fill="#16191C"/>
<path d="M221.529 236.356L216.86 245.358V250.167H214.089V245.358L209.4 236.356H212.526L215.494 242.667L218.442 236.356H221.529ZM227.994 250.345C226.939 250.345 225.989 250.114 225.145 249.652C224.301 249.177 223.635 248.511 223.147 247.654C222.672 246.796 222.434 245.807 222.434 244.686C222.434 243.564 222.678 242.575 223.166 241.718C223.668 240.86 224.347 240.201 225.204 239.739C226.062 239.264 227.018 239.027 228.073 239.027C229.129 239.027 230.085 239.264 230.942 239.739C231.8 240.201 232.473 240.86 232.961 241.718C233.462 242.575 233.712 243.564 233.712 244.686C233.712 245.807 233.455 246.796 232.941 247.654C232.44 248.511 231.754 249.177 230.883 249.652C230.026 250.114 229.063 250.345 227.994 250.345ZM227.994 247.931C228.495 247.931 228.964 247.812 229.399 247.574C229.848 247.324 230.204 246.955 230.468 246.466C230.731 245.978 230.863 245.385 230.863 244.686C230.863 243.644 230.586 242.846 230.032 242.291C229.491 241.724 228.825 241.441 228.034 241.441C227.242 241.441 226.576 241.724 226.035 242.291C225.508 242.846 225.244 243.644 225.244 244.686C225.244 245.728 225.501 246.532 226.016 247.1C226.543 247.654 227.203 247.931 227.994 247.931ZM246.093 239.205V250.167H243.303V248.781C242.947 249.256 242.478 249.632 241.898 249.909C241.331 250.173 240.711 250.305 240.038 250.305C239.181 250.305 238.422 250.127 237.763 249.771C237.103 249.401 236.582 248.867 236.2 248.168C235.83 247.456 235.646 246.612 235.646 245.635V239.205H238.416V245.24C238.416 246.11 238.633 246.783 239.069 247.258C239.504 247.72 240.097 247.95 240.849 247.95C241.614 247.95 242.215 247.72 242.65 247.258C243.085 246.783 243.303 246.11 243.303 245.24V239.205H246.093Z" fill="#F9F9F9"/>
<rect x="593.324" y="219.8" width="151.466" height="46.7331" rx="23.3665" fill="#16191C"/>
<path d="M632.203 236.356L627.138 250.167H623.774L618.709 236.356H621.677L625.476 247.337L629.255 236.356H632.203ZM643.935 240.629C643.935 241.368 643.757 242.061 643.401 242.707C643.058 243.353 642.511 243.874 641.759 244.27C641.02 244.666 640.083 244.864 638.949 244.864H636.634V250.167H633.864V236.356H638.949C640.017 236.356 640.928 236.54 641.679 236.91C642.431 237.279 642.992 237.787 643.361 238.433C643.744 239.079 643.935 239.812 643.935 240.629ZM638.83 242.628C639.595 242.628 640.163 242.456 640.532 242.113C640.901 241.757 641.086 241.263 641.086 240.629C641.086 239.284 640.334 238.611 638.83 238.611H636.634V242.628H638.83ZM657.714 250.167H654.944L648.672 240.689V250.167H645.902V236.336H648.672L654.944 245.833V236.336H657.714V250.167ZM664.454 244.686C664.454 243.551 664.685 242.562 665.147 241.718C665.609 240.86 666.248 240.201 667.066 239.739C667.884 239.264 668.821 239.027 669.876 239.027C671.234 239.027 672.356 239.37 673.239 240.056C674.136 240.728 674.737 241.678 675.04 242.905H672.052C671.894 242.43 671.624 242.061 671.241 241.797C670.872 241.52 670.41 241.381 669.856 241.381C669.065 241.381 668.438 241.672 667.976 242.252C667.515 242.819 667.284 243.63 667.284 244.686C667.284 245.728 667.515 246.539 667.976 247.119C668.438 247.687 669.065 247.97 669.856 247.97C670.977 247.97 671.709 247.469 672.052 246.466H675.04C674.737 247.654 674.136 248.597 673.239 249.296C672.343 249.995 671.221 250.345 669.876 250.345C668.821 250.345 667.884 250.114 667.066 249.652C666.248 249.177 665.609 248.518 665.147 247.673C664.685 246.816 664.454 245.82 664.454 244.686ZM679.84 235.525V250.167H677.069V235.525H679.84ZM683.981 237.899C683.493 237.899 683.084 237.747 682.754 237.444C682.438 237.127 682.28 236.738 682.28 236.276C682.28 235.815 682.438 235.432 682.754 235.129C683.084 234.812 683.493 234.654 683.981 234.654C684.469 234.654 684.872 234.812 685.188 235.129C685.518 235.432 685.683 235.815 685.683 236.276C685.683 236.738 685.518 237.127 685.188 237.444C684.872 237.747 684.469 237.899 683.981 237.899ZM685.346 239.205V250.167H682.576V239.205H685.346ZM698.273 244.448C698.273 244.844 698.247 245.2 698.194 245.517H690.181C690.247 246.308 690.524 246.928 691.012 247.377C691.5 247.825 692.1 248.049 692.812 248.049C693.841 248.049 694.573 247.607 695.009 246.724H697.996C697.68 247.779 697.073 248.65 696.176 249.335C695.279 250.008 694.178 250.345 692.872 250.345C691.816 250.345 690.867 250.114 690.022 249.652C689.191 249.177 688.538 248.511 688.064 247.654C687.602 246.796 687.371 245.807 687.371 244.686C687.371 243.551 687.602 242.555 688.064 241.698C688.525 240.84 689.172 240.181 690.003 239.719C690.834 239.258 691.79 239.027 692.872 239.027C693.914 239.027 694.844 239.251 695.662 239.699C696.493 240.148 697.132 240.788 697.581 241.619C698.043 242.437 698.273 243.38 698.273 244.448ZM695.404 243.657C695.391 242.944 695.134 242.377 694.633 241.955C694.131 241.52 693.518 241.302 692.793 241.302C692.107 241.302 691.526 241.513 691.051 241.935C690.59 242.344 690.306 242.918 690.201 243.657H695.404ZM706.37 239.047C707.676 239.047 708.731 239.462 709.536 240.293C710.34 241.111 710.743 242.259 710.743 243.736V250.167H707.972V244.112C707.972 243.241 707.755 242.575 707.319 242.113C706.884 241.639 706.291 241.401 705.539 241.401C704.774 241.401 704.167 241.639 703.718 242.113C703.283 242.575 703.065 243.241 703.065 244.112V250.167H700.295V239.205H703.065V240.57C703.435 240.095 703.903 239.726 704.47 239.462C705.051 239.185 705.684 239.047 706.37 239.047ZM716.602 241.48V246.783C716.602 247.152 716.688 247.423 716.859 247.594C717.044 247.753 717.347 247.832 717.769 247.832H719.055V250.167H717.314C714.979 250.167 713.812 249.032 713.812 246.763V241.48H712.506V239.205H713.812V236.494H716.602V239.205H719.055V241.48H716.602Z" fill="#F9F9F9"/>
<rect x="244.706" y="749.628" width="158.466" height="46.7331" rx="23.3665" fill="#16191C"/>
<path d="M283.501 766.184L278.436 779.995H275.072L270.007 766.184H272.975L276.774 777.166L280.553 766.184H283.501ZM295.233 770.458C295.233 771.197 295.055 771.889 294.699 772.536C294.356 773.182 293.808 773.703 293.057 774.099C292.318 774.494 291.381 774.692 290.247 774.692H287.932V779.995H285.162V766.184H290.247C291.315 766.184 292.226 766.369 292.977 766.738C293.729 767.108 294.29 767.615 294.659 768.262C295.042 768.908 295.233 769.64 295.233 770.458ZM290.128 772.456C290.893 772.456 291.46 772.285 291.83 771.942C292.199 771.586 292.384 771.091 292.384 770.458C292.384 769.113 291.632 768.44 290.128 768.44H287.932V772.456H290.128ZM309.012 779.995H306.242L299.97 770.517V779.995H297.2V766.164H299.97L306.242 775.662V766.164H309.012V779.995ZM320.659 780.173C319.762 780.173 318.958 780.015 318.245 779.698C317.533 779.369 316.966 778.927 316.544 778.373C316.135 777.819 315.911 777.205 315.871 776.532H318.661C318.714 776.955 318.918 777.304 319.274 777.581C319.644 777.858 320.099 777.997 320.64 777.997C321.167 777.997 321.576 777.891 321.866 777.68C322.17 777.469 322.321 777.199 322.321 776.869C322.321 776.513 322.137 776.249 321.767 776.077C321.411 775.893 320.837 775.695 320.046 775.484C319.228 775.286 318.555 775.081 318.028 774.87C317.513 774.659 317.065 774.336 316.682 773.901C316.313 773.466 316.128 772.879 316.128 772.14C316.128 771.533 316.3 770.979 316.643 770.478C316.999 769.977 317.5 769.581 318.146 769.291C318.806 769 319.578 768.855 320.461 768.855C321.767 768.855 322.809 769.185 323.588 769.845C324.366 770.491 324.795 771.368 324.874 772.476H322.222C322.183 772.041 321.998 771.698 321.668 771.447C321.352 771.184 320.923 771.052 320.382 771.052C319.881 771.052 319.492 771.144 319.215 771.329C318.951 771.513 318.819 771.771 318.819 772.1C318.819 772.47 319.004 772.753 319.373 772.951C319.743 773.136 320.316 773.327 321.095 773.525C321.886 773.723 322.539 773.927 323.053 774.138C323.568 774.349 324.01 774.679 324.379 775.128C324.762 775.563 324.96 776.143 324.973 776.869C324.973 777.502 324.795 778.069 324.439 778.57C324.096 779.072 323.594 779.467 322.935 779.758C322.288 780.035 321.53 780.173 320.659 780.173ZM337.437 774.277C337.437 774.673 337.41 775.029 337.358 775.345H329.344C329.41 776.137 329.687 776.757 330.175 777.205C330.663 777.654 331.263 777.878 331.976 777.878C333.005 777.878 333.737 777.436 334.172 776.552H337.16C336.843 777.608 336.236 778.478 335.339 779.164C334.442 779.837 333.341 780.173 332.035 780.173C330.98 780.173 330.03 779.942 329.186 779.481C328.355 779.006 327.702 778.34 327.227 777.482C326.765 776.625 326.534 775.636 326.534 774.514C326.534 773.38 326.765 772.384 327.227 771.527C327.689 770.669 328.335 770.01 329.166 769.548C329.997 769.086 330.953 768.855 332.035 768.855C333.077 768.855 334.007 769.08 334.825 769.528C335.656 769.977 336.296 770.616 336.744 771.447C337.206 772.265 337.437 773.208 337.437 774.277ZM334.568 773.485C334.554 772.773 334.297 772.206 333.796 771.784C333.295 771.348 332.681 771.131 331.956 771.131C331.27 771.131 330.689 771.342 330.215 771.764C329.753 772.173 329.469 772.747 329.364 773.485H334.568ZM342.229 770.735C342.585 770.155 343.047 769.7 343.614 769.37C344.194 769.04 344.854 768.875 345.592 768.875V771.784H344.86C343.99 771.784 343.33 771.988 342.882 772.397C342.446 772.806 342.229 773.518 342.229 774.534V779.995H339.459V769.033H342.229V770.735ZM352.029 777.443L354.799 769.033H357.747L353.691 779.995H350.327L346.291 769.033H349.259L352.029 777.443ZM369.493 774.277C369.493 774.673 369.467 775.029 369.414 775.345H361.4C361.466 776.137 361.743 776.757 362.231 777.205C362.719 777.654 363.32 777.878 364.032 777.878C365.061 777.878 365.793 777.436 366.228 776.552H369.216C368.899 777.608 368.293 778.478 367.396 779.164C366.499 779.837 365.397 780.173 364.091 780.173C363.036 780.173 362.086 779.942 361.242 779.481C360.411 779.006 359.758 778.34 359.283 777.482C358.822 776.625 358.591 775.636 358.591 774.514C358.591 773.38 358.822 772.384 359.283 771.527C359.745 770.669 360.391 770.01 361.222 769.548C362.053 769.086 363.01 768.855 364.091 768.855C365.133 768.855 366.063 769.08 366.881 769.528C367.712 769.977 368.352 770.616 368.801 771.447C369.262 772.265 369.493 773.208 369.493 774.277ZM366.624 773.485C366.611 772.773 366.354 772.206 365.852 771.784C365.351 771.348 364.738 771.131 364.012 771.131C363.326 771.131 362.746 771.342 362.271 771.764C361.809 772.173 361.526 772.747 361.42 773.485H366.624ZM374.285 770.735C374.641 770.155 375.103 769.7 375.67 769.37C376.251 769.04 376.91 768.875 377.649 768.875V771.784H376.917C376.046 771.784 375.387 771.988 374.938 772.397C374.503 772.806 374.285 773.518 374.285 774.534V779.995H371.515V769.033H374.285V770.735Z" fill="#F9F9F9"/>
<rect x="723.878" y="749.629" width="129.466" height="46.7331" rx="23.3665" fill="#16191C"/>
<path d="M753.029 766.185V779.996H750.259V766.185H753.029ZM761.84 768.876C763.146 768.876 764.202 769.291 765.006 770.122C765.811 770.94 766.213 772.088 766.213 773.565V779.996H763.443V773.941C763.443 773.07 763.225 772.404 762.79 771.943C762.355 771.468 761.761 771.23 761.009 771.23C760.244 771.23 759.638 771.468 759.189 771.943C758.754 772.404 758.536 773.07 758.536 773.941V779.996H755.766V769.034H758.536V770.399C758.905 769.924 759.374 769.555 759.941 769.291C760.521 769.014 761.154 768.876 761.84 768.876ZM772.073 771.309V776.612C772.073 776.981 772.158 777.252 772.33 777.423C772.515 777.582 772.818 777.661 773.24 777.661H774.526V779.996H772.785C770.45 779.996 769.283 778.861 769.283 776.592V771.309H767.977V769.034H769.283V766.323H772.073V769.034H774.526V771.309H772.073ZM786.709 774.277C786.709 774.673 786.682 775.029 786.629 775.346H778.616C778.682 776.137 778.959 776.757 779.447 777.206C779.935 777.654 780.535 777.878 781.248 777.878C782.276 777.878 783.009 777.437 783.444 776.553H786.432C786.115 777.608 785.508 778.479 784.611 779.165C783.714 779.837 782.613 780.174 781.307 780.174C780.252 780.174 779.302 779.943 778.458 779.481C777.627 779.006 776.974 778.34 776.499 777.483C776.037 776.625 775.806 775.636 775.806 774.515C775.806 773.38 776.037 772.384 776.499 771.527C776.96 770.67 777.607 770.01 778.438 769.548C779.269 769.087 780.225 768.856 781.307 768.856C782.349 768.856 783.279 769.08 784.097 769.529C784.928 769.977 785.568 770.617 786.016 771.448C786.478 772.266 786.709 773.209 786.709 774.277ZM783.84 773.486C783.826 772.774 783.569 772.206 783.068 771.784C782.567 771.349 781.953 771.131 781.228 771.131C780.542 771.131 779.961 771.342 779.487 771.764C779.025 772.173 778.741 772.747 778.636 773.486H783.84ZM791.501 770.736C791.857 770.155 792.318 769.7 792.886 769.37C793.466 769.041 794.126 768.876 794.864 768.876V771.784H794.132C793.262 771.784 792.602 771.989 792.154 772.398C791.718 772.807 791.501 773.519 791.501 774.535V779.996H788.731V769.034H791.501V770.736ZM802.805 768.876C804.11 768.876 805.166 769.291 805.97 770.122C806.775 770.94 807.177 772.088 807.177 773.565V779.996H804.407V773.941C804.407 773.07 804.19 772.404 803.754 771.943C803.319 771.468 802.725 771.23 801.974 771.23C801.208 771.23 800.602 771.468 800.153 771.943C799.718 772.404 799.5 773.07 799.5 773.941V779.996H796.73V769.034H799.5V770.399C799.87 769.924 800.338 769.555 800.905 769.291C801.485 769.014 802.119 768.876 802.805 768.876ZM820.002 774.277C820.002 774.673 819.975 775.029 819.922 775.346H811.909C811.975 776.137 812.252 776.757 812.74 777.206C813.228 777.654 813.828 777.878 814.541 777.878C815.569 777.878 816.302 777.437 816.737 776.553H819.725C819.408 777.608 818.801 778.479 817.904 779.165C817.007 779.837 815.906 780.174 814.6 780.174C813.545 780.174 812.595 779.943 811.751 779.481C810.92 779.006 810.267 778.34 809.792 777.483C809.33 776.625 809.099 775.636 809.099 774.515C809.099 773.38 809.33 772.384 809.792 771.527C810.253 770.67 810.9 770.01 811.731 769.548C812.562 769.087 813.518 768.856 814.6 768.856C815.642 768.856 816.572 769.08 817.39 769.529C818.221 769.977 818.861 770.617 819.309 771.448C819.771 772.266 820.002 773.209 820.002 774.277ZM817.133 773.486C817.119 772.774 816.862 772.206 816.361 771.784C815.86 771.349 815.246 771.131 814.521 771.131C813.835 771.131 813.254 771.342 812.78 771.764C812.318 772.173 812.034 772.747 811.929 773.486H817.133ZM825.249 771.309V776.612C825.249 776.981 825.334 777.252 825.506 777.423C825.691 777.582 825.994 777.661 826.416 777.661H827.702V779.996H825.961C823.626 779.996 822.459 778.861 822.459 776.592V771.309H821.153V769.034H822.459V766.323H825.249V769.034H827.702V771.309H825.249Z" fill="#F9F9F9"/>
<rect x="438.645" y="495.152" width="118.466" height="46.7331" rx="23.3665" fill="#16191C"/>
<path d="M474.451 511.708V513.944H470.77V525.519H468V513.944H464.32V511.708H474.451ZM486.82 514.557V525.519H484.03V524.134C483.674 524.609 483.206 524.985 482.625 525.262C482.058 525.526 481.438 525.658 480.766 525.658C479.908 525.658 479.15 525.479 478.49 525.123C477.831 524.754 477.309 524.22 476.927 523.521C476.558 522.808 476.373 521.964 476.373 520.988V514.557H479.143V520.592C479.143 521.463 479.361 522.136 479.796 522.61C480.231 523.072 480.825 523.303 481.577 523.303C482.342 523.303 482.942 523.072 483.377 522.61C483.813 522.136 484.03 521.463 484.03 520.592V514.557H486.82ZM495.628 514.399C496.934 514.399 497.989 514.815 498.794 515.646C499.598 516.463 500.001 517.611 500.001 519.088V525.519H497.23V519.464C497.23 518.594 497.013 517.928 496.578 517.466C496.142 516.991 495.549 516.754 494.797 516.754C494.032 516.754 493.425 516.991 492.976 517.466C492.541 517.928 492.323 518.594 492.323 519.464V525.519H489.553V514.557H492.323V515.923C492.693 515.448 493.161 515.078 493.728 514.815C494.309 514.538 494.942 514.399 495.628 514.399ZM508.709 514.399C510.015 514.399 511.07 514.815 511.875 515.646C512.68 516.463 513.082 517.611 513.082 519.088V525.519H510.312V519.464C510.312 518.594 510.094 517.928 509.659 517.466C509.224 516.991 508.63 516.754 507.878 516.754C507.113 516.754 506.506 516.991 506.058 517.466C505.623 517.928 505.405 518.594 505.405 519.464V525.519H502.635V514.557H505.405V515.923C505.774 515.448 506.243 515.078 506.81 514.815C507.39 514.538 508.023 514.399 508.709 514.399ZM525.906 519.801C525.906 520.196 525.88 520.553 525.827 520.869H517.814C517.88 521.661 518.157 522.281 518.645 522.729C519.133 523.178 519.733 523.402 520.445 523.402C521.474 523.402 522.206 522.96 522.642 522.076H525.629C525.313 523.131 524.706 524.002 523.809 524.688C522.912 525.361 521.811 525.697 520.505 525.697C519.449 525.697 518.5 525.466 517.655 525.005C516.824 524.53 516.171 523.864 515.697 523.006C515.235 522.149 515.004 521.159 515.004 520.038C515.004 518.904 515.235 517.908 515.697 517.05C516.158 516.193 516.805 515.533 517.636 515.072C518.467 514.61 519.423 514.379 520.505 514.379C521.547 514.379 522.477 514.604 523.295 515.052C524.126 515.501 524.765 516.14 525.214 516.971C525.675 517.789 525.906 518.732 525.906 519.801ZM523.037 519.009C523.024 518.297 522.767 517.73 522.266 517.308C521.764 516.872 521.151 516.655 520.425 516.655C519.74 516.655 519.159 516.866 518.684 517.288C518.223 517.697 517.939 518.271 517.833 519.009H523.037ZM530.698 510.877V525.519H527.928V510.877H530.698Z" fill="#F9F9F9"/>
<rect x="587.219" y="80.0192" width="170.642" height="127.575" rx="5.68275" fill="#16191C" stroke="#16191C" stroke-width="0.664432"/>
<rect x="581.014" y="73.8213" width="171.306" height="128.239" rx="6.01496" fill="#F9F9F9"/>
<path d="M587.997 82.8899C589.195 82.8899 590.161 81.9232 590.161 80.7245C590.161 79.5258 589.195 78.5591 587.997 78.5591C586.799 78.5591 585.833 79.5258 585.833 80.7245C585.833 81.9232 586.799 82.8899 587.997 82.8899Z" fill="#1EBFBF"/>
<path d="M594.488 82.8899C595.686 82.8899 596.652 81.9232 596.652 80.7245C596.652 79.5258 595.686 78.5591 594.488 78.5591C593.29 78.5591 592.324 79.5258 592.324 80.7245C592.324 81.9232 593.29 82.8899 594.488 82.8899Z" fill="#1EBFBF"/>
<path d="M600.983 82.8899C602.181 82.8899 603.147 81.9232 603.147 80.7245C603.147 79.5258 602.181 78.5591 600.983 78.5591C599.785 78.5591 598.819 79.5258 598.819 80.7245C598.819 81.9232 599.824 82.8899 600.983 82.8899Z" fill="#1EBFBF"/>
<path d="M585.833 86.6201H745.35" stroke="#16191C" stroke-width="0.664432" stroke-linecap="round"/>
<g clip-path="url(#clip0_3208_1054)">
<rect x="674.352" y="91.3403" width="71.1386" height="104.93" rx="3.60898" fill="#16191C"/>
<rect x="721.568" y="101.935" width="13.9547" height="14.1953" rx="3.04518" fill="#1EBFBF"/>
<path d="M729.878 109.2C729.878 109.823 729.499 110.383 728.921 110.614L728.546 110.764L728.17 110.614C727.592 110.383 727.213 109.823 727.213 109.2V107.568L728.546 107.301L729.878 107.568V109.2Z" fill="#16191C"/>
<circle opacity="0.3" cx="728.523" cy="109.022" r="31.4884" stroke="#1EBFBF" stroke-width="0.481197"/>
<circle opacity="0.15" cx="728.529" cy="109.028" r="40.1808" stroke="#1EBFBF" stroke-width="0.481197"/>
<circle opacity="0.6" cx="728.516" cy="109.016" r="22.7959" stroke="#1EBFBF" stroke-width="0.481197"/>
<circle cx="728.472" cy="109.039" r="13.9974" stroke="#1EBFBF" stroke-width="0.481197"/>
</g>
<rect x="586.887" y="91.3403" width="8.93613" height="104.93" rx="3.60898" fill="#EEEEEE"/>
<path d="M634.551 104.216H666.024C668.017 104.216 669.633 105.832 669.633 107.825V130.234C669.633 132.227 668.017 133.843 666.024 133.843H634.551V104.216Z" fill="#C4C4C5"/>
<path d="M598.819 107.825C598.819 105.832 600.435 104.216 602.428 104.216H634.55V133.843H602.428C600.435 133.843 598.819 132.227 598.819 130.234V107.825Z" fill="#EEEEEE"/>
<rect x="598.819" y="91.3403" width="70.813" height="7.58167" rx="3.60898" fill="#EEEEEE"/>
<rect x="603.48" y="109.412" width="13.4106" height="8.71883" rx="1.47227" fill="#16191C" stroke="#16191C" stroke-width="0.664432"/>
<rect x="639.081" y="109.412" width="13.4106" height="8.71883" rx="1.47227" fill="#16191C" stroke="#16191C" stroke-width="0.664432"/>
<g clip-path="url(#clip1_3208_1054)">
<rect width="70.8563" height="12.3908" transform="translate(599.062 137.298)" fill="#F9F9F9"/>
<rect x="612.415" y="141.88" width="34.032" height="3.36838" rx="1.68419" fill="#EEEEEE"/>
<rect x="599.06" y="140.476" width="9.26775" height="6.17844" rx="1.80449" fill="#C4C4C5"/>
<path d="M666.757 140.736C666.824 140.62 666.992 140.62 667.059 140.736L667.991 142.335C668.016 142.377 668.057 142.407 668.105 142.418L669.914 142.809C670.045 142.838 670.097 142.997 670.008 143.097L668.774 144.477C668.742 144.514 668.726 144.562 668.731 144.611L668.917 146.452C668.931 146.586 668.795 146.684 668.672 146.63L666.979 145.884C666.934 145.864 666.882 145.864 666.837 145.884L665.144 146.63C665.021 146.684 664.885 146.586 664.899 146.452L665.085 144.611C665.09 144.562 665.074 144.514 665.042 144.477L663.809 143.097C663.719 142.997 663.771 142.838 663.902 142.809L665.711 142.418C665.759 142.407 665.8 142.377 665.825 142.335L666.757 140.736Z" fill="#EEEEEE"/>
</g>
<g clip-path="url(#clip2_3208_1054)">
<rect width="70.8563" height="12.5111" transform="translate(599.183 149.688)" fill="#F9F9F9"/>
<rect x="612.536" y="154.272" width="34.032" height="3.36838" rx="1.68419" fill="#EEEEEE"/>
<rect x="599.181" y="152.866" width="9.26775" height="6.17844" rx="1.80449" fill="#C4C4C5"/>
<path d="M666.878 153.126C666.945 153.01 667.113 153.01 667.18 153.126L668.112 154.724C668.137 154.767 668.178 154.797 668.226 154.807L670.035 155.199C670.166 155.227 670.218 155.387 670.129 155.487L668.896 156.867C668.863 156.903 668.847 156.952 668.852 157.001L669.038 158.842C669.052 158.975 668.916 159.074 668.793 159.02L667.1 158.274C667.055 158.254 667.003 158.254 666.958 158.274L665.265 159.02C665.142 159.074 665.006 158.975 665.02 158.842L665.206 157.001C665.211 156.952 665.195 156.903 665.163 156.867L663.93 155.487C663.84 155.387 663.892 155.227 664.023 155.199L665.832 154.807C665.88 154.797 665.921 154.767 665.946 154.724L666.878 153.126Z" fill="#EEEEEE"/>
</g>
<g clip-path="url(#clip3_3208_1054)">
<rect width="70.8563" height="12.3908" transform="translate(599.062 162.199)" fill="#F9F9F9"/>
<rect x="612.415" y="166.783" width="34.032" height="3.36838" rx="1.68419" fill="#EEEEEE"/>
<rect x="599.06" y="165.377" width="9.26775" height="6.17844" rx="1.80449" fill="#C4C4C5"/>
<path d="M666.757 165.637C666.824 165.521 666.992 165.521 667.059 165.637L667.991 167.236C668.016 167.279 668.057 167.309 668.105 167.319L669.914 167.711C670.045 167.739 670.097 167.899 670.008 167.999L668.774 169.378C668.742 169.415 668.726 169.464 668.731 169.513L668.917 171.354C668.931 171.487 668.795 171.586 668.672 171.532L666.979 170.785C666.934 170.766 666.882 170.766 666.837 170.785L665.144 171.532C665.021 171.586 664.885 171.487 664.899 171.354L665.085 169.513C665.09 169.464 665.074 169.415 665.042 169.378L663.809 167.999C663.719 167.899 663.771 167.739 663.902 167.711L665.711 167.319C665.759 167.309 665.8 167.279 665.825 167.236L666.757 165.637Z" fill="#EEEEEE"/>
</g>
<g clip-path="url(#clip4_3208_1054)">
<rect width="70.8563" height="12.3908" transform="translate(599.183 174.59)" fill="#F9F9F9"/>
<rect x="612.536" y="179.174" width="34.032" height="3.36838" rx="1.68419" fill="#EEEEEE"/>
<rect x="599.181" y="177.768" width="9.26775" height="6.17844" rx="1.80449" fill="#C4C4C5"/>
<path d="M666.878 178.028C666.945 177.912 667.113 177.912 667.18 178.028L668.112 179.627C668.137 179.669 668.178 179.699 668.226 179.71L670.035 180.101C670.166 180.13 670.218 180.289 670.129 180.389L668.896 181.769C668.863 181.806 668.847 181.854 668.852 181.903L669.038 183.744C669.052 183.878 668.916 183.976 668.793 183.922L667.1 183.176C667.055 183.156 667.003 183.156 666.958 183.176L665.265 183.922C665.142 183.976 665.006 183.878 665.02 183.744L665.206 181.903C665.211 181.854 665.195 181.806 665.163 181.769L663.93 180.389C663.84 180.289 663.892 180.13 664.023 180.101L665.832 179.71C665.88 179.699 665.921 179.669 665.946 179.627L666.878 178.028Z" fill="#EEEEEE"/>
</g>
<g clip-path="url(#clip5_3208_1054)">
<rect width="70.8563" height="12.3908" transform="translate(599.062 186.981)" fill="#F9F9F9"/>
<rect x="612.415" y="191.565" width="34.032" height="3.36838" rx="1.68419" fill="#EEEEEE"/>
<rect x="599.06" y="190.159" width="9.26775" height="6.17844" rx="1.80449" fill="#C4C4C5"/>
<path d="M666.757 190.419C666.824 190.303 666.992 190.303 667.059 190.419L667.991 192.018C668.016 192.06 668.057 192.091 668.105 192.101L669.914 192.493C670.045 192.521 670.097 192.68 670.008 192.78L668.774 194.16C668.742 194.197 668.726 194.246 668.731 194.295L668.917 196.135C668.931 196.269 668.795 196.367 668.672 196.313L666.979 195.567C666.934 195.547 666.882 195.547 666.837 195.567L665.144 196.313C665.021 196.367 664.885 196.269 664.899 196.135L665.085 194.295C665.09 194.246 665.074 194.197 665.042 194.16L663.809 192.78C663.719 192.68 663.771 192.521 663.902 192.493L665.711 192.101C665.759 192.091 665.8 192.06 665.825 192.018L666.757 190.419Z" fill="#EEEEEE"/>
</g>
<circle cx="425.824" cy="148.105" r="45.2512" fill="#F9F9F9"/>
<path d="M425.821 113.964C430.412 113.964 434.817 115.789 438.064 119.036C441.311 122.283 443.135 126.687 443.135 131.279C443.135 132.594 442.069 133.66 440.754 133.661C439.439 133.66 438.372 132.594 438.372 131.279C438.372 127.95 437.049 124.758 434.696 122.404C432.342 120.05 429.149 118.728 425.821 118.728C422.492 118.728 419.299 120.05 416.946 122.404C414.592 124.758 413.27 127.95 413.27 131.279V138.745H445.841C447.156 138.745 448.223 139.811 448.223 141.126V173.695C448.223 175.01 447.156 176.077 445.841 176.077H405.806C404.491 176.077 403.424 175.01 403.424 173.695V141.126C403.424 139.811 404.491 138.745 405.806 138.745H408.506V131.279C408.506 126.687 410.33 122.283 413.577 119.036C416.824 115.789 421.229 113.965 425.821 113.964ZM425.824 146.21C422.732 146.211 420.225 148.718 420.225 151.81C420.225 154.277 421.822 156.371 424.037 157.117V164.875C424.037 165.862 424.837 166.662 425.823 166.663C426.81 166.663 427.61 165.862 427.61 164.875V157.118C429.827 156.372 431.424 154.278 431.424 151.81C431.424 148.718 428.917 146.21 425.824 146.21Z" fill="#16191C"/>
<circle cx="152.856" cy="540.404" r="44.2512" fill="#16191C" stroke="#1EBFBF" stroke-width="2"/>
<path d="M152.852 506.263C157.444 506.263 161.848 508.087 165.095 511.334C168.342 514.581 170.167 518.985 170.167 523.577V531.043H172.873C174.188 531.043 175.255 532.109 175.255 533.425V565.993C175.254 567.308 174.188 568.375 172.873 568.375H132.838C131.522 568.375 130.456 567.308 130.456 565.993V533.425C130.456 532.109 131.522 531.043 132.838 531.043H135.538V523.577C135.538 518.985 137.362 514.581 140.609 511.334C143.856 508.087 148.26 506.263 152.852 506.263ZM152.856 538.509C149.764 538.509 147.257 541.016 147.257 544.108C147.257 546.576 148.853 548.669 151.069 549.415V557.175C151.069 558.161 151.869 558.962 152.855 558.962C153.842 558.962 154.641 558.161 154.641 557.175V549.416C156.858 548.671 158.456 546.577 158.456 544.108C158.455 541.016 155.949 538.509 152.856 538.509ZM152.852 511.026C149.524 511.027 146.331 512.348 143.977 514.702C141.624 517.056 140.302 520.249 140.302 523.577V531.043H165.404V523.577C165.404 520.248 164.081 517.056 161.727 514.702C159.374 512.348 156.181 511.026 152.852 511.026Z" fill="#F9F9F9"/>
<circle cx="849.91" cy="278.852" r="44.3292" fill="#16191C" stroke="#1EBFBF" stroke-width="1.84412"/>
<path d="M849.906 244.711C854.498 244.711 858.903 246.536 862.15 249.783C865.397 253.03 867.221 257.434 867.221 262.026V269.492H869.927C871.242 269.492 872.309 270.558 872.309 271.874V304.442C872.309 305.757 871.242 306.824 869.927 306.824H829.892C828.577 306.824 827.51 305.757 827.51 304.442V271.874C827.51 270.558 828.577 269.492 829.892 269.492H832.592V262.026C832.592 257.434 834.417 253.03 837.663 249.783C840.91 246.536 845.315 244.712 849.906 244.711ZM849.91 276.958C846.818 276.958 844.311 279.465 844.311 282.557C844.311 285.024 845.908 287.118 848.123 287.864V295.623C848.123 296.609 848.923 297.409 849.909 297.41C850.896 297.41 851.696 296.609 851.696 295.623V287.865C853.913 287.119 855.51 285.025 855.51 282.557C855.51 279.465 853.003 276.958 849.91 276.958ZM849.906 249.475C846.578 249.475 843.385 250.797 841.031 253.151C838.678 255.505 837.356 258.697 837.356 262.026V269.492H862.458V262.026C862.458 258.697 861.135 255.505 858.781 253.151C856.428 250.797 853.235 249.475 849.906 249.475Z" fill="#F9F9F9"/>
<circle cx="78.6412" cy="78.6412" r="78.6412" transform="matrix(0.159438 0.987208 0.987208 -0.159438 697.975 585.972)" fill="#F9F9F9"/>
<mask id="mask1_3208_1054" style="mask-type:alpha" maskUnits="userSpaceOnUse" x="709" y="572" width="158" height="158">
<circle cx="78.6412" cy="78.6412" r="78.6412" transform="matrix(-0.692015 -0.721883 -0.721883 0.692015 899.405 653.154)" fill="white"/>
</mask>
<g mask="url(#mask1_3208_1054)">
<path d="M617.263 703.885C617.613 702.501 619.097 703.767 619.839 703.529C621.236 703.015 620.799 701.869 621.847 701.196C622.109 701.038 624.073 699.971 623.331 701.473C622.894 702.343 622.196 703.332 621.978 704.202C621.803 704.992 622.458 705.625 622.109 706.376C620.712 709.421 619.577 706.139 618.835 705.23C618.442 704.716 617.045 704.874 617.263 703.885ZM623.069 708.235C625.164 707.642 630.97 711.794 627.172 712.861C624.946 713.494 625.251 712.387 624.204 710.963C623.855 710.489 621.41 708.591 623.069 708.235ZM648.866 676.562C649.259 675.93 650.219 675.613 650.612 675.02C650.874 674.625 650.525 673.794 650.656 673.676C650.961 673.32 651.703 673.28 651.834 673.162C651.616 673.439 653.144 671.857 652.882 671.976C654.366 671.185 659.255 669.287 660.957 669.959C665.06 671.58 662.703 669.563 665.715 668.456C666.152 668.298 668.29 667.626 668.203 668.615C668.159 668.891 666.544 669.761 666.195 670.117C666.021 670.275 665.017 671.264 665.017 671.303C664.886 671.422 664.842 671.778 664.406 672.015C664.013 672.252 663.052 672.173 662.572 672.292C661.787 672.529 660.041 673.122 659.648 673.715C659.342 674.15 660.041 674.902 660.128 674.862C659.997 674.981 659.473 675.376 659.298 675.534C659.56 675.297 655.588 676.681 655.806 676.76C654.366 676.681 654.453 675.297 652.838 675.613C652.096 675.771 651.485 676.958 650.525 677.314C648.604 678.065 647.993 678.025 648.866 676.562ZM675.493 656.159C675.886 655.922 678.243 655.21 676.977 656.317C676.191 656.831 674.052 660.943 674.009 658.136C673.965 657.345 674.751 656.633 675.493 656.159ZM677.501 660.785C676.54 661.813 673.267 664.265 672.175 662.13C670.255 658.413 677.413 659.046 677.501 660.785ZM672.961 666.4C673.092 666.005 677.632 667.151 677.719 667.389C678.461 669.129 679.378 670.394 678.854 672.292C677.675 676.246 678.068 671.936 677.326 671.738C676.671 671.58 675.667 673.913 674.794 672.569C674.358 671.896 675.667 670.829 676.016 670.236C676.191 669.84 675.274 669.563 675.536 669.247C675.58 669.208 676.366 668.733 676.322 668.852C676.409 668.614 677.762 669.287 677.326 668.219C676.933 667.349 672.132 669.089 672.961 666.4ZM678.024 651.375C678.505 651.295 679.247 651.414 679.378 651.889C679.727 653.154 680.032 656.871 677.937 654.815C678.112 654.973 677.457 652.64 677.413 652.798C677.501 652.205 676.628 651.612 678.024 651.375ZM679.683 645.641C680.512 646.195 680.556 648.448 679.072 648.488C677.719 648.488 678.592 644.771 679.683 645.641ZM836.78 670.078C839.224 669.484 842.105 669.129 844.419 668.219C846.252 667.468 846.47 666.717 847.474 665.135C849.613 661.892 854.764 660.311 858.518 658.927C860.875 658.057 861.573 658.65 863.93 658.769C865.807 658.887 867.291 657.78 869.299 657.938C871.613 658.097 872.224 659.757 874.363 660.192C875.978 660.509 878.509 660.271 879.601 659.243C881.521 657.464 879.033 655.764 880.124 654.221C881.041 652.956 883.442 654.34 884.489 653.075C885.406 651.968 883.311 649.437 884.926 648.646C886.672 647.776 887.894 649.951 888.767 650.465C890.906 651.77 893.132 650.821 894.529 649.042C895.402 647.934 896.013 646.511 896.057 645.127C896.144 643.545 894.616 642.952 893.307 641.845C892.215 640.975 891.823 640.777 891.473 640.817C891.037 640.857 890.644 641.292 889.116 641.094C887.719 640.936 888.2 640.461 886.497 640.263C885.362 640.145 881.914 640.422 880.91 641.133C879.862 641.885 879.644 645.404 878.116 644.178C876.938 643.189 878.378 640.857 878.64 639.71C879.208 637.14 878.771 637.337 876.283 636.033C874.363 635.044 874.275 634.925 873.839 633.027C873.228 630.22 873.446 630.418 871.351 628.876C870.128 627.966 870.303 626.74 869.255 625.791C868.994 625.594 866.636 624.724 866.2 624.842C864.759 625.238 866.331 625.396 865.763 626.068C865.589 626.266 866.069 627.373 865.283 627.531C864.498 627.689 863.581 626.108 863.101 625.791C861.966 625.119 859.172 625.475 859.565 623.775C859.914 622.272 862.664 624.17 863.712 623.221C868.339 619.03 845.073 619.386 859.958 612.624C862.402 611.517 862.621 611.28 863.93 608.986C864.105 608.71 865.109 606.535 865.371 606.495C866.942 606.1 865.545 606.851 866.506 607.365C867.902 608.116 869.168 609.698 870.478 607.444C871.22 606.139 870.696 605.783 870.783 605.388C870.827 605.111 871.132 604.834 872.398 604.202C874.45 603.134 875.323 602.699 877.374 602.976C880.255 603.371 880.255 603.569 879.644 605.349C879.208 606.535 878.815 606.614 878.684 607.602C878.597 608.156 879.295 608.393 879.077 609.263C878.946 609.777 877.942 610.489 877.505 611.082C877.374 611.24 877.287 611.438 877.287 611.596C877.331 612.545 878.378 612.624 878.858 613.375C879.819 614.917 879.12 614.048 879.47 615.985C879.601 616.736 878.902 617.171 879.95 617.33C881.958 617.646 882.525 614.72 883.093 613.889C883.704 612.98 884.315 612.545 885.144 612.268C885.93 611.952 886.89 611.794 888.112 611.477C888.331 611.398 888.854 611.359 889.509 611.28C890.862 611.122 892.696 610.924 892.957 610.766C893.787 610.212 893.219 609.54 893.7 608.789C893.7 608.749 893.743 608.749 893.743 608.71C893.83 608.591 893.918 608.512 894.049 608.472C894.442 608.314 894.878 608.63 895.096 608.156C895.358 607.681 895.489 607.246 895.533 606.851C895.707 605.625 895.009 604.716 893.656 604.004C893.525 603.925 891.692 603.332 891.692 603.411C891.604 603.292 891.168 602.343 891.299 602.422C890.993 602.146 888.723 599.734 888.156 599.931C887.327 600.248 888.156 602.581 885.886 602.264C883.223 601.908 885.45 600.129 885.275 599.18C885.057 597.875 883.485 597.282 883.311 596.056C883.311 596.096 883.835 593.565 883.747 593.644C884.533 592.735 887.327 592.577 887.85 593.091C888.243 593.486 886.497 595.661 888.592 596.214C890.426 596.689 888.985 595.068 890.208 594.198C890.95 593.684 891.342 594.633 891.386 594.633C891.735 594.435 892.128 594.277 892.696 593.842C893.35 593.328 893.918 591.707 894.703 590.481C895.533 589.097 896.537 588.188 898.021 589.651C899.33 590.955 897.803 592.023 896.624 593.012C895.489 594 894.703 594.91 897.104 595.977C897.322 596.056 897.584 596.135 897.934 596.214C899.941 596.531 903.695 596.096 905.223 595.819C908.322 595.186 911.814 595.938 915.263 595.819C915.175 595.819 916.747 594.317 917.14 594.079C918.318 593.447 920.544 593.328 921.81 593.051C926.219 592.063 929.449 591.628 933.814 592.893C940.58 594.831 947.258 592.537 954.286 591.746C957.865 591.351 961.052 592.063 964.282 593.13C965.111 593.407 967.075 593.526 966.77 594.751C966.552 595.621 964.456 595.7 963.933 596.254C961.881 598.429 965.198 597.243 964.806 598.982C964.587 600.01 962.492 599.694 962.274 600.841C961.881 603.134 967.686 602.739 966.333 605.428C965.853 606.377 960.921 608.71 959.786 608.947C957.952 609.342 956.032 608.749 954.417 608.275C952.147 607.602 949.353 606.139 946.909 606.218C944.901 606.258 942.151 607.642 940.187 608.195C935.778 609.5 934.949 613.375 931.457 615.906C929.187 617.527 925.04 618.16 923.163 620.137C921.985 621.402 922.596 622.826 922.77 624.645C922.945 626.424 923.6 628.52 922.77 630.101C921.985 631.604 920.413 633.106 918.929 634.53C918.231 635.202 917.62 635.835 917.052 636.428C915.786 637.851 909.283 645.76 908.366 645.325C907.275 644.771 910.505 641.924 907.886 643.269C906.445 644.02 904.743 647.42 903.783 648.686C902.255 650.702 900.684 651.612 898.763 652.284C897.366 652.758 895.795 653.114 893.918 653.668C892.215 654.182 891.386 654.459 889.946 655.368C889.204 655.843 888.549 656.475 887.719 656.713C886.759 656.989 885.45 656.357 884.533 656.713C883.223 657.227 882.481 659.243 881.172 660.113C879.339 661.339 877.549 661.339 875.585 661.813C868.557 663.553 876.894 667.982 877.156 670.354C877.593 674.111 873.49 678.144 871.132 680.991C869.91 682.493 868.557 682.889 867.073 684.115C865.327 685.538 865.589 686.369 865.763 688.266C866.462 695.384 868.121 703.055 867.771 710.212C867.597 713.533 866.156 717.527 864.978 720.73C864.41 722.232 863.014 724.328 860.831 723.616C858.125 722.707 860.831 719.583 860.787 717.804C860.744 715.194 858.998 709.698 857.077 707.8C855.637 706.376 853.192 705.862 851.708 704.518C850.224 703.174 850.311 701.908 848.434 700.959C847.299 700.406 846.688 700.603 845.903 699.536C845.423 698.903 845.248 697.994 844.942 697.282C844.244 695.661 843.764 693.091 842.585 691.707C839.966 688.701 835.077 690.599 834.379 686.013C834.117 684.233 834.597 681.544 833.637 679.963C832.764 678.539 830.276 678.223 829.534 676.681C827.264 672.015 833.157 670.947 836.78 670.078ZM867.335 595.78C868.994 594.831 868.906 593.565 870.259 592.419C870.652 592.063 871.176 591.786 871.744 591.509C872.835 590.995 874.057 590.56 874.974 590.007C876.589 589.058 877.855 587.397 879.426 586.448C879.906 586.171 880.43 585.934 880.954 585.815C882.656 585.42 889.946 585.103 890.513 587.001C890.6 587.16 890.644 587.357 890.688 587.515C891.342 590.323 885.231 590.837 883.267 591.39C880.823 592.102 878.378 593.13 877.374 595.345C876.851 596.491 877.374 598.033 876.807 599.18C876.065 600.683 874.843 601.039 873.271 601.829C872.311 602.304 871.089 603.213 869.954 603.648C869.736 603.727 869.474 603.806 869.299 603.846C866.549 604.32 866.986 603.055 865.938 601.473C865.414 600.683 863.756 599.575 863.712 598.547C863.581 596.254 865.807 596.649 867.335 595.78ZM895.096 585.815C896.711 585.538 898.545 587.12 896.58 588.109C894.398 589.216 893.045 585.815 895.096 585.815ZM902.517 586.487C905.616 588.188 900.64 590.797 899.898 589.888C897.541 587.99 899.592 584.906 902.517 586.487ZM903.041 591.588C903.39 590.679 904.918 590.362 905.529 589.69C906.489 588.623 906.576 586.764 908.148 586.171C910.287 585.341 912.949 587.397 915.132 586.962C917.402 586.487 928.881 582.81 927.135 588.148C926.306 590.639 922.683 589.295 920.806 589.927C918.624 590.679 917.314 593.091 915.219 593.723C912.949 594.396 910.854 592.774 908.497 593.012C906.838 593.209 901.469 595.463 903.041 591.588ZM910.636 582.059C911.552 581.307 916.398 580.517 917.882 579.963C919.497 579.33 919.715 579.172 921.243 579.489C921.81 579.607 925.695 581.07 923.382 581.94C921.155 582.77 918.362 584.471 916.005 584.708C914.215 584.866 908.279 583.996 910.636 582.059ZM911.64 577.828C911.902 575.376 917.489 577.511 916.048 578.975C915.001 579.805 911.465 579.409 911.64 577.828ZM897.235 582.929C897.628 581.98 900.029 581.268 900.902 580.793C901.775 580.279 901.949 579.686 903.215 579.686C904.088 579.686 906.183 580.121 904.787 581.347C903.695 582.336 902.735 583.443 901.382 583.957C900.072 584.471 896.362 585.064 897.235 582.929ZM867.597 569.05C870.085 568.417 872.704 567.942 875.236 567.508C878.116 566.994 880.343 567.626 883.223 568.14C886.061 568.654 888.942 569.129 891.779 569.643C893.176 569.88 894.878 569.682 894.267 570.948C892.87 573.834 884.708 571.422 884.14 572.569C883.398 573.992 889.204 574.071 889.596 574.032C892.128 573.716 894.223 572.094 896.493 571.501C897.672 571.185 902.037 571.778 901.775 573.281C901.469 575.02 897.41 576.681 895.795 577.235C894.791 577.551 893.874 578.026 892.914 577.907C892.172 577.828 890.033 576.009 889.509 576.918C888.767 578.184 893.35 580.556 894.092 580.635C894.573 580.675 901.033 578.144 899.068 580.714C898.326 581.703 896.493 581.031 895.62 581.742C894.922 582.296 894.66 584.866 893.787 584.866H888.854C887.676 584.866 883.136 585.538 882.22 584.866C878.946 582.612 885.319 582.019 886.934 582.336C888.025 582.573 890.775 584.194 891.386 582.533C891.997 580.833 888.985 581.189 887.981 581.228C886.454 581.307 883.049 582.415 881.739 581.901C880.604 581.466 880.997 580.279 880.299 579.212C879.775 578.421 878.422 578.026 878.029 577.195C877.898 576.918 878.335 576.286 878.466 576.325C877.855 575.613 876.458 575.06 875.105 574.467C873.271 573.636 867.335 571.778 866.069 570.473C864.978 569.208 866.069 569.445 867.597 569.05ZM903.084 577.037C904.045 575.416 909.501 576.088 907.799 577.749C906.751 578.302 901.644 579.449 903.084 577.037ZM900.945 577.274C900.291 578.223 899.025 578.263 898.719 577.156C898.326 575.772 901.906 575.337 900.945 577.274ZM818.228 571.897C818.272 567.982 842.847 567.152 846.645 567.784C852.319 568.694 859.609 568.615 864.148 571.818C866.724 573.636 868.47 574.783 871.613 575.693C873.14 576.167 875.061 576.325 874.755 578.105C874.581 579.093 872.136 581.861 870.958 581.901C868.688 581.98 865.633 581.584 863.494 582.375C861.006 583.324 858.299 586.29 856.379 587.99C852.494 591.39 852.799 597.559 851.403 602.027C850.922 603.569 849.875 605.981 847.911 606.495C844.724 607.326 844.986 602.146 843.502 600.643C842.323 599.417 841.581 600.09 839.966 599.773C838.308 599.417 837.871 598.903 836.78 597.757C834.859 595.661 832.939 595.226 830.058 594.277C826.26 593.012 822.375 587.515 823.074 583.68C823.51 581.228 826.697 578.46 824.863 576.286C823.554 574.862 818.228 574.111 818.228 571.897ZM814.867 597.243C816.919 596.887 819.189 596.412 821.109 596.491C822.594 596.531 823.99 597.084 825.343 597.638C825.998 597.915 826.129 598.706 825.518 599.101C823.554 600.445 822.113 601.394 819.407 601.394C815.784 601.394 815.566 600.801 814.169 598.508C813.907 597.994 814.213 597.322 814.867 597.243ZM625.775 593.209C629.005 592.142 631.624 590.56 634.636 591.944C637.604 593.288 640.354 593.447 643.934 592.853C647.295 592.3 648.299 589.413 651.18 588.029C653.973 586.685 658.513 587.515 661.481 587.515C662.921 587.515 664.187 587.357 665.41 587.95C667.112 588.781 667.417 590.521 669.556 590.758C670.735 590.876 673.528 590.165 674.663 589.769C677.151 588.82 676.191 587.515 677.893 586.131C678.635 585.538 681.516 584.945 682.389 585.024C684.528 585.222 684.397 587.16 686.623 587.16C687.496 587.16 690.552 586.25 691.294 585.776C694.088 583.878 690.945 583.719 690.77 581.98C690.465 579.054 695.965 579.568 697.972 579.409C701.072 579.172 705.044 578.223 708.099 578.619C711.155 579.014 714.254 581.307 716.917 582.573C717.79 583.008 719.492 583.482 720.19 584.154C721.369 585.301 721.238 586.29 722.853 587.239C723.77 587.792 725.734 588.939 726.869 588.978C728.659 589.058 729.532 587.792 731.321 587.911C732.5 587.99 734.9 589.097 735.861 589.69C736.341 589.967 736.865 589.967 737.258 590.402C737.956 591.153 737.389 592.577 738.523 593.091C739.789 593.644 741.972 592.3 743.281 592.221C745.595 592.102 745.376 593.368 747.21 594.079C749.611 594.989 752.753 594.158 755.198 595.186C758.341 596.531 760.916 599.813 764.233 600.722C765.237 600.999 766.634 601.236 767.376 600.01C768.729 597.717 764.801 598.429 763.797 597.48C762.051 595.819 765.63 594.672 767.769 593.882C768.075 593.763 768.336 593.644 768.598 593.565C770.955 592.537 775.189 589.69 777.765 589.572C780.558 589.453 784.312 592.814 786.495 594.04C787.848 594.791 788.983 595.424 790.031 596.214C790.773 596.729 791.427 597.361 792.082 598.112C793.566 599.773 798.106 603.134 798.324 605.349C798.411 606.179 796.971 608.354 796.142 608.789C794.265 609.817 793.653 608.077 791.82 608.314C789.55 608.63 789.158 614.364 785.622 611.042C785.011 610.449 784.094 607.998 784.007 607.207C783.832 605.783 785.011 604.479 784.487 603.134C784.269 602.581 782.654 600.88 780.995 599.852C779.642 598.982 778.332 598.587 777.765 599.536C777.721 599.575 777.721 599.655 777.678 599.694C777.066 601.711 784.531 604.32 779.205 606.258C778.158 606.653 775.364 605.309 774.578 606.535C773.487 608.195 777.023 607.879 777.678 608.512C778.594 609.421 777.852 610.528 779.249 611.438C780.689 612.387 783.134 613.178 784.836 613.652C787.368 614.364 790.161 613.375 792.693 613.85C795.225 614.324 797.669 616.381 799.59 617.804C800.856 618.713 802.645 619.702 802.995 621.244C803.387 623.142 800.899 624.645 802.296 626.424C803.3 627.689 804.915 626.701 806.356 627.294C808.014 627.966 809.193 630.813 807.927 632.434C806.356 634.49 801.336 634.49 799.634 632.869C798.368 631.643 799.372 629.469 797.8 628.085C796.84 627.215 794.439 626.147 793.173 625.949C790.467 625.515 790.423 627.057 788.983 628.52C788.459 629.073 785.884 631.367 785.142 631.446C781.082 631.841 786.888 626.543 787.062 625.435C787.15 625.001 786.888 623.696 786.408 623.458C785.229 622.905 785.491 623.617 784.836 624.289C784.05 625.08 783.352 626.701 782.479 627.65C781.257 629.034 779.031 633.423 777.416 633.541C775.801 633.66 776.281 631.525 774.928 631.723C773.793 631.881 773.182 634.293 771.479 634.649C769.995 634.925 768.38 633.858 766.852 634.135C764.67 634.569 763.491 636.784 764.626 638.563C765.979 640.659 770.388 639.71 772.92 639.275C774.36 639.038 776.499 638.326 777.939 638.445C780.209 638.642 780.471 640.422 783.003 639.947C784.531 639.67 787.106 638.721 788.415 637.891C790.292 636.744 789.027 637.219 789.638 635.518C790.205 633.976 789.812 634.332 791.733 634.214C793.653 634.095 795.749 634.451 797.669 634.569C801.947 634.846 805.963 635.281 808.713 638.445C810.371 640.343 811.899 642.359 813.427 644.376C814.125 645.325 815.348 646.471 815.609 647.658C816.046 649.635 814.431 651.77 814.649 653.905C814.998 657.701 812.336 659.085 809.324 661.616C806.53 663.949 804.741 664.542 801.074 664.502C799.721 664.502 798.586 664.463 797.32 664.067C796.011 663.672 794.788 662.446 793.304 662.683C792.388 662.841 791.209 664.146 790.249 664.502C788.197 665.253 788.503 664.067 787.804 666.163C787.368 667.547 787.804 669.01 787.237 670.394C786.757 671.58 785.709 672.806 785.054 673.873C782.959 677.195 783.396 678.104 784.05 681.624C784.618 684.589 782.654 685.934 781.955 688.741C781.606 690.164 781.999 691.548 781.257 692.932C780.646 694.119 779.336 695.265 778.463 696.372C776.237 699.101 775.539 700.564 771.785 700.682C767.638 700.801 766.634 700.366 764.495 697.361C763.622 696.135 763.186 695.423 762.88 694C762.444 692.102 762.444 692.26 761.047 690.995C759.432 689.492 760.218 689.255 759.825 687.397C759.519 685.894 758.69 685.301 757.555 684.194C755.285 681.979 754.892 680.24 755.591 677.037C755.852 675.89 756.769 675.06 757.075 673.992C757.598 672.094 756.682 671.62 755.503 670.394C753.408 668.219 750.134 666.282 748.912 663.553C748.301 662.209 747.952 659.836 749.261 658.69C750.876 657.306 753.67 658.136 755.678 656.792C758.122 655.17 759.694 654.221 760.916 651.691C761.265 650.94 765.412 643.387 764.888 643.071C764.452 642.834 759.17 648.409 758.602 649.121C756.682 651.533 755.678 656.199 751.662 656.199C749.392 656.199 744.634 654.538 743.019 653.352C740.662 651.651 739.44 647.302 742.976 645.601C745.115 644.573 744.853 646.274 746.73 646.55C748.738 646.827 749.392 645.087 750.309 643.545C750.833 642.636 752.317 640.896 750.309 640.619C749.087 640.461 747.777 643.189 746.424 643.545C744.896 643.941 743.63 643.229 742.103 643.862C739.964 644.692 740.008 645.206 737.432 645.206C733.285 645.206 731.845 646.195 729.008 649.318C727.087 651.414 725.909 654.063 724.512 656.475C722.722 659.52 721.544 661.774 719.448 657.938C717.833 655.012 716.698 653.787 713.948 651.73C712.726 650.821 711.286 649.2 709.802 648.646C707.881 647.895 707.663 648.409 706.659 650.149C705.568 652.086 705.873 652.165 703.953 653.075C703.298 653.391 702.687 652.877 701.945 653.431C701.377 653.866 701.072 655.566 700.941 656.119C700.286 658.808 700.417 661.023 698.496 663.435C697.798 664.305 696.663 666.044 695.441 664.819C694.524 663.87 696.532 661.576 697.143 660.785C697.667 660.113 699.98 658.334 698.016 657.78C696.226 657.266 695.834 660.429 694.262 660.667C691.6 661.023 688.544 655.843 690.072 653.787C690.901 652.64 693.258 652.719 693.389 651.058C693.564 648.607 690.334 650.267 689.112 650.228C686.711 650.188 682.084 646.946 680.774 645.325C679.421 643.664 678.723 639.552 679.247 637.416C679.639 635.756 681.124 634.965 680.687 633.186C680.207 631.288 678.199 630.932 676.366 631.841C674.838 632.553 674.576 634.767 673.092 635.123C669.425 635.993 672.743 632.237 672.874 631.446C673.048 630.339 672.35 628.638 671.215 627.966C669.862 627.175 667.898 628.124 666.544 627.492C664.536 626.543 662.529 621.916 662.005 619.939C661.743 618.99 661.699 617.211 662.092 616.301C662.79 614.641 665.366 614.522 664.973 612.703C664.58 610.845 660.564 608.354 658.644 608.037C655.326 607.484 652.62 608.63 649.739 606.97C648.692 606.337 642.362 601.513 641.489 605.269C640.922 607.84 647.207 609.619 647.644 612.308C647.993 614.562 646.509 618.951 643.759 617.25C641.315 615.748 639.307 612.585 638.827 610.054C638.259 606.93 635.684 607.246 632.541 606.139C630.926 605.586 629.355 604.637 627.696 604.241C626.736 604.004 625.47 604.281 624.597 603.965C623.113 603.411 618.66 599.378 618.093 597.994C616.74 594.949 623.418 594 625.775 593.209ZM758.341 629.785C760.043 630.655 764.452 628.836 766.416 628.678C769.515 628.441 772.789 628.757 770.955 625.08C770.213 623.577 769.821 623.261 767.987 622.944C766.59 622.707 763.186 622.588 762.706 624.21C762.138 625.87 754.456 627.808 758.341 629.785ZM748.956 634.174C751.793 634.174 751.313 630.576 752.23 628.796C753.277 626.819 755.11 623.972 751.182 623.735C749.698 623.617 748.65 624.566 748.039 625.791C747.865 626.108 747.734 626.424 747.646 626.78C747.428 627.452 747.297 628.164 747.253 628.796C747.079 630.576 745.944 634.174 748.956 634.174ZM749.349 681.268C751.138 683.166 751.968 684.273 752.23 686.843C752.404 688.86 751.793 692.932 748.345 691.193C746.511 690.283 746.206 686.448 745.813 684.747C745.42 683.008 746.511 678.263 749.349 681.268ZM695.572 668.18C695.746 668.1 701.814 664.739 699.937 667.507C698.933 668.97 692.254 676.918 691.643 671.738C691.425 669.88 693.869 669.168 695.572 668.18ZM690.115 673.32C690.814 675.732 685.183 677.472 683.612 676.048C680.338 673.122 688.981 670.671 690.115 673.32ZM680.382 664.739C680.643 663.553 679.77 661.892 681.167 661.141C683.175 660.074 683.481 662.169 684.092 663.356C684.703 664.581 685.052 665.253 686.405 666.005C687.235 666.479 690.246 666.717 688.85 668.338C687.496 669.88 684.659 673.004 682.04 672.055C681.036 671.699 680.163 669.287 679.858 668.496C679.159 666.558 679.989 666.637 680.382 664.739ZM643.541 692.142C644.196 688.741 648.342 687.476 650.83 684.985C651.965 683.838 652.795 681.307 654.191 680.556C657.945 678.539 655.894 682.889 657.814 683.877C660.957 685.499 661.132 680.358 661.743 679.449C663.358 677.116 666.457 679.132 667.81 680.358C669.687 682.019 671.04 681.426 672.917 682.533C674.358 683.363 674.882 685.578 676.671 686.25C678.112 686.764 680.643 687.199 681.735 688.148C683.175 689.413 682.171 691.153 681.691 692.893C681.211 694.751 680.993 697.282 680.032 698.982C678.941 700.92 677.719 700.524 675.493 700.524C673.528 700.524 672.437 700.485 670.735 699.852C668.378 698.943 667.112 697.321 664.493 698.35C663.576 698.705 662.834 699.694 661.874 699.931C661.001 700.168 660.477 699.773 659.779 699.852C656.374 700.129 657.858 701.869 655.632 703.846C653.144 706.06 647.819 704.478 646.029 702.383C643.41 699.378 642.755 696.017 643.541 692.142Z" fill="#1EBFBF"/>
<path d="M806.707 724.286C822.542 721.221 820.499 724.286 839.91 724.286C852.292 725.226 863.918 727.351 877.71 724.286C887.608 722.086 903.762 727.862 928.792 724.286C953.822 720.71 946.16 724.798 971.701 720.2C997.242 715.603 1000.31 737.057 981.917 739.611C963.528 742.165 864.94 743.186 746.941 743.697C628.942 744.208 621.791 731.437 630.985 727.351C640.18 723.264 673.894 729.905 691.773 724.286C709.651 718.667 735.192 731.948 757.668 724.286C780.144 716.624 790.871 727.351 806.707 724.286Z" fill="#1EBFBF"/>
</g>
<path d="M851.635 696.075C826.794 732.009 775.518 739.74 740.848 713.58C737.232 710.852 733.918 707.872 730.913 704.683" stroke="#F9F9F9" stroke-width="1.77677" stroke-linecap="round"/>
<path d="M711.2 663.497C704.275 620.62 732.734 580.359 775.61 573.434C818.487 566.509 858.859 595.654 865.784 638.531C867.987 652.169 866.54 665.553 862.163 677.689" stroke="#F9F9F9" stroke-width="1.77677" stroke-linecap="round"/>
<path d="M809.512 649.04C809.389 649.579 808.681 649.707 808.376 649.247L779.653 605.825C779.355 605.376 779.725 604.785 780.26 604.856L831.928 611.747C832.476 611.82 832.669 612.515 832.237 612.861L819.555 622.991C819.217 623.262 819.247 623.785 819.614 624.015L838.436 635.798C838.731 635.982 838.82 636.371 838.635 636.665L833.761 644.419C833.576 644.712 833.189 644.801 832.896 644.617L814.073 632.836C813.707 632.607 813.224 632.807 813.127 633.228L809.512 649.04Z" fill="#16191C"/>
<path d="M851.764 707.403C932.817 728.324 900.861 677.514 838.35 641.943" stroke="#16191C" stroke-width="1.77677" stroke-linecap="round"/>
<rect width="154.58" height="138.542" rx="15.47" transform="matrix(-1 0 0 1 401.229 585.655)" fill="#F9F9F9"/>
<rect width="134.851" height="32.91" rx="7.67764" transform="matrix(-1 0 0 1 391.365 596.925)" fill="#1EBFBF"/>
<rect width="48.7133" height="5.54393" rx="2.77196" transform="matrix(-1 0 0 1 382.176 610.608)" fill="#16191C"/>
<circle cx="3.27577" cy="3.27577" r="3.27577" transform="matrix(-1 0 0 1 326.043 610.104)" fill="#16191C"/>
<circle cx="3.27577" cy="3.27577" r="3.27577" transform="matrix(-1 0 0 1 314.322 610.104)" fill="#FA3556"/>
<circle cx="3.27577" cy="3.27577" r="3.27577" transform="matrix(-1 0 0 1 271.337 610.104)" fill="#F9F9F9"/>
<rect width="134.851" height="32.91" rx="7.67764" transform="matrix(-1 0 0 1 391.365 639.064)" fill="#1EBFBF"/>
<rect width="48.7133" height="5.54393" rx="2.77196" transform="matrix(-1 0 0 1 382.176 652.747)" fill="#16191C"/>
<circle cx="3.27577" cy="3.27577" r="3.27577" transform="matrix(-1 0 0 1 326.043 652.244)" fill="#16191C"/>
<circle cx="3.27577" cy="3.27577" r="3.27577" transform="matrix(-1 0 0 1 314.322 652.244)" fill="#FA3556"/>
<circle cx="3.27577" cy="3.27577" r="3.27577" transform="matrix(-1 0 0 1 271.337 652.244)" fill="#F9F9F9"/>
<rect width="134.851" height="32.91" rx="7.67764" transform="matrix(-1 0 0 1 391.365 681.204)" fill="#1EBFBF"/>
<rect width="48.7133" height="5.54393" rx="2.77196" transform="matrix(-1 0 0 1 382.176 694.887)" fill="#16191C"/>
<circle cx="3.27577" cy="3.27577" r="3.27577" transform="matrix(-1 0 0 1 314.322 694.383)" fill="#FA3556"/>
<circle cx="3.27577" cy="3.27577" r="3.27577" transform="matrix(-1 0 0 1 271.337 694.383)" fill="#F9F9F9"/>
<ellipse cx="72.7035" cy="36.0399" rx="72.7035" ry="36.0399" transform="matrix(0.0138439 -0.999904 -0.99994 -0.0109885 361.586 483.866)" stroke="#16191C" stroke-width="2.76618" stroke-linecap="round"/>
<ellipse cx="72.7035" cy="36.0399" rx="72.7035" ry="36.0399" transform="matrix(0.0138439 -0.999904 -0.99994 -0.0109885 331.299 483.533)" stroke="#16191C" stroke-width="2.76618" stroke-linecap="round"/>
<ellipse cx="72.7035" cy="36.0399" rx="72.7035" ry="36.0399" transform="matrix(0.0138439 -0.999904 -0.99994 -0.0109885 422.16 484.531)" stroke="#16191C" stroke-width="2.76618" stroke-linecap="round"/>
<ellipse cx="72.7035" cy="36.0399" rx="72.7035" ry="36.0399" transform="matrix(0.0138439 -0.999904 -0.99994 -0.0109885 391.873 484.199)" stroke="#16191C" stroke-width="2.76618" stroke-linecap="round"/>
<path d="M388.136 338.742C368.233 338.523 351.647 370.893 351.092 411.043C350.536 451.192 366.22 483.917 386.123 484.135" stroke="#F9F9F9" stroke-width="2.76618" stroke-linecap="round"/>
<path d="M357.848 338.409C337.945 338.19 321.36 370.56 320.804 410.71C320.248 450.859 335.932 483.584 355.835 483.802" stroke="#F9F9F9" stroke-width="2.76618" stroke-linecap="round"/>
<path d="M327.561 338.077C307.658 337.858 291.072 370.228 290.517 410.377C289.961 450.526 305.645 483.251 325.548 483.47" stroke="#F9F9F9" stroke-width="2.76618" stroke-linecap="round"/>
<path d="M297.274 337.744C277.371 337.525 260.786 369.895 260.23 410.045C259.674 450.194 275.358 482.918 295.261 483.137" stroke="#F9F9F9" stroke-width="2.76618" stroke-linecap="round"/>
<ellipse cx="72.7035" cy="36.0399" rx="72.7035" ry="36.0399" transform="matrix(0.0138439 -0.999904 -0.99994 -0.0109885 457.191 483.2)" stroke="#16191C" stroke-width="2.76618" stroke-linecap="round"/>
<ellipse cx="72.7035" cy="36.0399" rx="72.7035" ry="36.0399" transform="matrix(0.0138439 -0.999904 -0.99994 -0.0109885 517.766 483.865)" stroke="#16191C" stroke-width="2.76618" stroke-linecap="round"/>
<ellipse cx="72.7035" cy="36.0399" rx="72.7035" ry="36.0399" transform="matrix(0.0138439 -0.999904 -0.99994 -0.0109885 487.479 483.532)" stroke="#16191C" stroke-width="2.76618" stroke-linecap="round"/>
<ellipse cx="72.7035" cy="36.0399" rx="72.7035" ry="36.0399" transform="matrix(0.0138439 -0.999904 -0.99994 -0.0109885 578.34 484.531)" stroke="#16191C" stroke-width="2.76618" stroke-linecap="round"/>
<ellipse cx="72.7035" cy="36.0399" rx="72.7035" ry="36.0399" transform="matrix(0.0138439 -0.999904 -0.99994 -0.0109885 548.053 484.198)" stroke="#16191C" stroke-width="2.76618" stroke-linecap="round"/>
<path d="M544.316 338.741C524.413 338.522 507.828 370.892 507.272 411.042C506.716 451.191 522.4 483.916 542.303 484.134" stroke="#F9F9F9" stroke-width="2.76618" stroke-linecap="round"/>
<path d="M514.029 338.409C494.126 338.19 477.54 370.56 476.984 410.709C476.429 450.858 492.113 483.583 512.016 483.802" stroke="#F9F9F9" stroke-width="2.76618" stroke-linecap="round"/>
<path d="M483.741 338.077C463.838 337.858 447.253 370.228 446.697 410.377C446.141 450.526 461.825 483.251 481.728 483.47" stroke="#F9F9F9" stroke-width="2.76618" stroke-linecap="round"/>
<path d="M453.454 337.743C433.551 337.524 416.966 369.894 416.41 410.044C415.854 450.193 431.538 482.918 451.441 483.136" stroke="#F9F9F9" stroke-width="2.76618" stroke-linecap="round"/>
<path d="M423.167 337.411C403.263 337.192 386.678 369.562 386.122 409.712C385.566 449.861 401.25 482.585 421.154 482.804" stroke="#F9F9F9" stroke-width="2.76618" stroke-linecap="round"/>
<ellipse cx="72.7035" cy="36.0399" rx="72.7035" ry="36.0399" transform="matrix(0.0138439 -0.999904 -0.99994 -0.0109885 613.372 483.2)" stroke="#16191C" stroke-width="2.76618" stroke-linecap="round"/>
<ellipse cx="72.7035" cy="36.0399" rx="72.7035" ry="36.0399" transform="matrix(0.0138439 -0.999904 -0.99994 -0.0109885 673.947 483.865)" stroke="#16191C" stroke-width="2.76618" stroke-linecap="round"/>
<ellipse cx="72.7035" cy="36.0399" rx="72.7035" ry="36.0399" transform="matrix(0.0138439 -0.999904 -0.99994 -0.0109885 643.659 483.532)" stroke="#16191C" stroke-width="2.76618" stroke-linecap="round"/>
<ellipse cx="72.7035" cy="36.0399" rx="72.7035" ry="36.0399" transform="matrix(0.0138439 -0.999904 -0.99994 -0.0109885 734.521 484.531)" stroke="#16191C" stroke-width="2.76618" stroke-linecap="round"/>
<ellipse cx="72.7035" cy="36.0399" rx="72.7035" ry="36.0399" transform="matrix(0.0138439 -0.999904 -0.99994 -0.0109885 704.234 484.198)" stroke="#16191C" stroke-width="2.76618" stroke-linecap="round"/>
<path d="M700.496 338.741C680.593 338.522 664.008 370.892 663.452 411.042C662.896 451.191 678.58 483.916 698.483 484.134" stroke="#F9F9F9" stroke-width="2.76618" stroke-linecap="round"/>
<path d="M670.209 338.409C650.306 338.19 633.721 370.56 633.165 410.709C632.609 450.858 648.293 483.583 668.196 483.802" stroke="#F9F9F9" stroke-width="2.76618" stroke-linecap="round"/>
<path d="M639.921 338.077C620.018 337.858 603.433 370.228 602.877 410.377C602.321 450.526 618.005 483.251 637.908 483.47" stroke="#F9F9F9" stroke-width="2.76618" stroke-linecap="round"/>
<path d="M609.635 337.743C589.731 337.524 573.146 369.894 572.59 410.044C572.034 450.193 587.718 482.918 607.622 483.136" stroke="#F9F9F9" stroke-width="2.76618" stroke-linecap="round"/>
<path d="M579.347 337.411C559.444 337.192 542.859 369.562 542.303 409.712C541.747 449.861 557.431 482.585 577.334 482.804" stroke="#F9F9F9" stroke-width="2.76618" stroke-linecap="round"/>
<circle cx="534.096" cy="651.965" r="45.2512" fill="#F9F9F9"/>
<path d="M534.092 617.824C538.684 617.824 543.088 619.649 546.335 622.896C549.582 626.143 551.407 630.547 551.407 635.139C551.407 636.454 550.341 637.52 549.026 637.521C547.711 637.52 546.644 636.454 546.644 635.139C546.644 631.81 545.321 628.617 542.967 626.264C540.614 623.91 537.421 622.588 534.092 622.588C530.764 622.588 527.571 623.91 525.217 626.264C522.864 628.617 521.542 631.81 521.542 635.139V642.604H554.113C555.428 642.605 556.495 643.671 556.495 644.986V677.555C556.495 678.87 555.428 679.936 554.113 679.937H514.078C512.762 679.937 511.696 678.87 511.696 677.555V644.986C511.696 643.671 512.762 642.604 514.078 642.604H516.778V635.139C516.778 630.547 518.602 626.143 521.849 622.896C525.096 619.649 529.5 617.824 534.092 617.824ZM534.096 650.07C531.004 650.071 528.497 652.578 528.497 655.67C528.497 658.137 530.093 660.23 532.309 660.977V668.735C532.309 669.722 533.109 670.522 534.095 670.522C535.082 670.522 535.881 669.722 535.881 668.735V660.978C538.099 660.232 539.696 658.138 539.696 655.67C539.696 652.577 537.189 650.07 534.096 650.07Z" fill="#16191C"/>
<path d="M696.399 652.876C697.51 653.674 697.51 655.327 696.399 656.125L644.195 693.612C642.871 694.562 641.028 693.616 641.028 691.987L641.028 617.014C641.028 615.385 642.871 614.44 644.195 615.39L696.399 652.876Z" fill="#16191C"/>
<defs>
<clipPath id="clip0_3208_1054">
<rect x="674.352" y="91.3403" width="71.1386" height="104.93" rx="3.60898" fill="white"/>
</clipPath>
<clipPath id="clip1_3208_1054">
<rect width="70.8563" height="12.3908" fill="white" transform="translate(599.062 137.298)"/>
</clipPath>
<clipPath id="clip2_3208_1054">
<rect width="70.8563" height="12.5111" fill="white" transform="translate(599.183 149.688)"/>
</clipPath>
<clipPath id="clip3_3208_1054">
<rect width="70.8563" height="12.3908" fill="white" transform="translate(599.062 162.199)"/>
</clipPath>
<clipPath id="clip4_3208_1054">
<rect width="70.8563" height="12.3908" fill="white" transform="translate(599.183 174.59)"/>
</clipPath>
<clipPath id="clip5_3208_1054">
<rect width="70.8563" height="12.3908" fill="white" transform="translate(599.062 186.981)"/>
</clipPath>
</defs>
</svg>
